<svg version="1.1" xmlns="http://www.w3.org/2000/svg" xmlns:xlink="http://www.w3.org/1999/xlink" width="483" height="290.01533" viewBox="0,0,483,290.01533"><g transform="translate(1.5,-34.99234)"><g data-paper-data="{&quot;isPaintingLayer&quot;:true}" fill-rule="nonzero" stroke-linecap="butt" stroke-linejoin="miter" stroke-miterlimit="10" stroke-dasharray="" stroke-dashoffset="0" style="mix-blend-mode: normal"><path d="M-1.5,325.00766v-290.01533h483v290.01533z" fill="#ffffff" stroke="#000000" stroke-width="0"/><path d="M72.25852,166.07254v28.32545c0,19.38553 -15.71545,27.76083 -32.46605,27.66672h-31.24269v-19.95015h31.99553c7.24605,0 10.5397,-3.67008 10.5397,-9.12814v-26.25515c0,-5.45806 -3.48187,-8.93993 -10.5397,-8.93993h-11.19844v34.34814l-20.79709,-18.8209v-35.38329h31.24269c16.7506,0 32.46605,8.56351 32.46605,28.13724zM227.06042,195.80957l18.44448,8.56351c-6.96373,13.64515 -19.57374,18.915 -30.11344,18.915c-16.37418,0 -32.93657,-9.69276 -32.93657,-28.79598v-28.98419c0,-19.00911 16.56239,-28.79598 33.31299,-28.79598c10.25739,0 22.67918,4.42291 29.3606,19.38553l-17.22112,7.05784c-5.64627,-10.5397 -24.27896,-8.09299 -24.27896,2.35261v28.98419c0,10.16329 18.915,12.98642 23.43202,1.31746zM175.39705,198.06807c-0.65873,16.28008 -17.69165,25.22001 -33.03068,25.22001c-9.97508,0 -20.60889,-5.17575 -28.41956,-15.24493l13.26873,-12.61c8.3753,10.25739 26.81978,10.72791 27.38441,1.69388c0.18821,-4.79933 -7.43426,-7.52836 -14.30388,-8.4694c-13.45694,-2.0703 -25.69053,-10.63381 -25.69053,-26.72568c0,-16.56239 14.86851,-25.22001 30.20754,-25.22001c10.16329,0 19.95015,2.82313 28.60777,13.45694l-13.83336,10.72791c-8.75172,-9.31635 -23.71433,-9.03403 -24.09075,0.75284c0.28231,4.04649 4.61112,6.39911 11.10433,7.81067c14.86851,2.72903 29.73702,7.90478 28.79598,28.60777zM83.64517,137.9353h21.07941v84.12942h-21.07941zM471.4498,166.07254v28.32545c0,19.38553 -15.71545,27.76083 -32.46605,27.66672h-31.24269v-19.95015h31.99553c7.24605,0 10.5397,-3.67008 10.5397,-9.12814v-26.25515c0,-5.45806 -3.48187,-8.93993 -10.5397,-8.93993h-11.10433v34.34814l-20.79709,-18.8209v-35.38329h31.24269c16.7506,0 32.46605,8.56351 32.37195,28.13724zM320.50619,165.60202v28.79598c0,19.29142 -17.22112,28.89008 -34.53635,28.89008c-17.40933,0 -34.72456,-9.59866 -34.72456,-28.89008v-28.79598c0,-19.38553 17.22112,-28.89008 34.53635,-28.89008c17.31523,0 34.72456,9.59866 34.72456,28.89008zM299.33268,165.60202c0,-6.49321 -6.96373,-9.50455 -13.83336,-9.50455c-6.58731,0 -13.17463,3.29366 -13.17463,9.50455v28.79598c0,6.11679 6.77552,9.12814 13.55105,9.12814c6.68142,0 13.45694,-3.10545 13.45694,-9.12814zM379.69792,193.17464l22.77329,28.89008h-26.34926l-19.38553,-26.72568h-3.76418v26.81978h-21.36172v-84.22353h33.4071c17.22112,0 30.58396,7.90478 31.05448,27.66672c0,15.62135 -6.2109,24.37307 -16.37418,27.57262zM365.39403,157.79135h-12.42179v19.19732h12.42179c13.36284,0 13.36284,-19.19732 0,-19.19732z" fill="#000000" stroke="none" stroke-width="1"/></g></g></svg>